<svg width="304" height="111" viewBox="0 0 304 111" fill="none" xmlns="http://www.w3.org/2000/svg">
<path d="M242.7 55.3C239 64.7 236 72.8 236 73.3C236 73.7 237.7 74 239.9 74C242.9 74 243.9 73.6 244.3 72C244.7 70.3 245.7 70 249.9 70C253.9 70 255.1 70.4 256 72C256.8 73.4 258.1 74 260.6 74C263.9 74 264.2 73.8 263.6 71.6C262.4 66.8 250.8 38 250.1 38C249.7 38 246.3 45.8 242.7 55.3Z" fill="black"/>
<path d="M247.671 59.1123C246.506 62.2378 246.033 63.8338 246.033 64C246.033 64 245.813 64 246.506 64C247.45 64 247.356 64 248.08 64C248.615 64 248.615 64 249.937 64C251.197 64 250.977 64 251.732 64C252.677 64 252.047 64 252.834 64C253.873 64 253.213 64 254 64C253.528 62.4704 250.221 53.36 250 53.36C249.875 53.36 248.804 55.9535 247.671 59.1123Z" fill="white"/>
<path d="M36.5 40.4C32.2 42.2 27.2 48.3 26.4 52.5C25.5 57.4 26.7 63.7 29.2 67.8C32.9 73.9 43.1 76.8 49.3 73.6C50.8 72.8 52 72.5 52 73.1C52 73.6 53.6 74 55.5 74H59V63.5V53H52H45V56.5C45 59.7 45.2 60 48 60C50.5 60 51 60.4 51 62.5C51 65.6 45.6 68.6 41.7 67.6C36.7 66.4 34.7 63.7 34.2 57.7C33.8 52.5 34 51.9 36.8 49C40.3 45.5 44.6 45 49.1 47.7C51.8 49.3 52 49.3 54 47.5C56.9 44.8 56.5 43.3 52 41C47.5 38.7 40.9 38.5 36.5 40.4Z" fill="black"/>
<path d="M70.8 41.5C64.4 45.9 63.3 55 68.7 60.4C78.8 70.5 95.4 60.9 91 47.5C89.4 42.8 83.9 39 78.5 39C75.9 39 73.2 39.9 70.8 41.5Z" fill="black"/>
<path d="M75.1399 47.6696C72.6749 49.4465 72.2513 53.1214 74.3311 55.3021C78.2212 59.3808 84.6147 55.504 82.9201 50.0926C82.3038 48.1946 80.1855 46.66 78.1056 46.66C77.1042 46.66 76.0643 47.0235 75.1399 47.6696Z" fill="#FDFDFD"/>
<path d="M98 56.5V74.3L106.1 73.7C112.4 73.3 114.9 72.6 118 70.6C127.7 64.2 127 46.7001 116.8 41.4001C115.1 40.5001 110.2 39.5001 105.8 39.3001L98 38.7001V56.5ZM111.5 47.4001C115.6 49.1001 117 51.6 117 56.9C117 61.8 113.9 65.7 109.3 66.6L106 67.2V56.6C106 49.5 105.3 46 106.5 46C107.1 46 109.6 46.6001 111.5 47.4001Z" fill="black"/>
<path d="M129 42.5V46H134C136.8 46 139 46.4 139 46.8C139 47.3 136.8 53.2 134 60C131.3 66.8 129 72.7 129 73.2C129 73.6 133.7 74 139.5 74H150V70.5V67H145C142.3 67 140 66.6 140 66.2C140 65.7 142.3 59.8 145 53C147.8 46.2 150 40.3 150 39.8C150 39.4 145.3 39 139.5 39H129V42.5Z" fill="black"/>
<path d="M155 56.5V74H167H179V70.5V67H171H163V63.5V60H169.5H176V56.5V53H169.5H163V49.5V46H171H179V42.5V39H167H155V56.5Z" fill="black"/>
<path d="M184 56.5V74H196H208V70.5V67H200H192V63.5V60H198.5H205V56.5V53H198.5H192V49.5V46H200H208V42.5V39H196H184V56.5Z" fill="black"/>
<path d="M214 56.5V74H224H234V70.5V67H228H222V53V39H218H214V56.5Z" fill="black"/>
<path d="M66.2 70.2L66.5 73.5L78.3 73.8L90 74.1V70.5V67H77.9H65.9L66.2 70.2Z" fill="black"/>
</svg>
